<svg width="16.000000" height="16.000000" viewBox="0 0 16 16" fill="none" xmlns="http://www.w3.org/2000/svg" xmlns:xlink="http://www.w3.org/1999/xlink">
	<desc>
			Created with Pixso.
	</desc>
	<defs/>
	<rect id="Rectangle" width="16.000000" height="16.000000" fill="#D8D8D8" fill-opacity="0"/>
	<rect id="Rectangle" width="16.000000" height="16.000000" stroke="#979797" stroke-opacity="0" stroke-width="0.000000"/>
	<path id="Path" d="M10.84 11.05C7.73 11.05 5.21 8.74 5.21 5.89C5.21 4.82 5.57 3.82 6.18 3C3.75 3.75 2 5.86 2 8.35C2 11.47 4.75 14 8.16 14C10.87 14 13.17 12.39 14 10.16C13.1 10.72 12.01 11.05 10.84 11.05Z" fill="#FFFFFF" fill-opacity="1.000000" fill-rule="evenodd"/>
	<path id="Path" d="M5.21 5.89C5.21 4.82 5.57 3.82 6.18 3C3.75 3.75 2 5.86 2 8.35C2 11.47 4.75 14 8.16 14C10.87 14 13.17 12.39 14 10.16C13.1 10.72 12.01 11.05 10.84 11.05C7.73 11.05 5.21 8.74 5.21 5.89Z" stroke="#111517" stroke-opacity="0" stroke-width="0.000000"/>
</svg>
