<svg width="17.000000" height="16.000000" viewBox="0 0 17 16" fill="none" xmlns="http://www.w3.org/2000/svg" xmlns:xlink="http://www.w3.org/1999/xlink">
	<desc>
			Created with Pixso.
	</desc>
	<defs/>
	<path id="Path" d="M11.55 10.81C7.66 10.81 4.51 7.92 4.51 4.36C4.51 3.02 4.96 1.78 5.73 0.75C2.69 1.69 0.5 4.33 0.5 7.43C0.5 11.33 3.94 14.5 8.2 14.5C11.59 14.5 14.46 12.49 15.5 9.7C14.37 10.4 13.01 10.81 11.55 10.81Z" fill="#FFFFFF" fill-opacity="1.000000" fill-rule="evenodd"/>
	<path id="Path" d="M4.51 4.36C4.51 3.02 4.96 1.78 5.73 0.75C2.69 1.69 0.5 4.33 0.5 7.43C0.5 11.33 3.94 14.5 8.2 14.5C11.59 14.5 14.46 12.49 15.5 9.7C14.37 10.4 13.01 10.81 11.55 10.81C7.66 10.81 4.51 7.92 4.51 4.36Z" stroke="#111517" stroke-opacity="1.000000" stroke-width="1.250000"/>
</svg>
